PathFileType	4	(X/Y/Z)	Patient4_TMGait_0pt6_01_right_28.trc.trc
DataRate	CameraRate	NumFrames	NumMarkers	Units	OrigDataRate	OrigDataStartFrame	OrigNumFrames
82.352941176470	82.352941176470	4	33	mm	82.352941176470	124	       141
Frame#	Time	Sacral			L.Shoulder			Chest			R.Shoulder			Neck			R.ASIS			L.ASIS			R.Thigh.Superior			R.Thigh.Lateral			R.Thigh.Inferior			R.Patella			L.Thigh.Superior			L.Thigh.Lateral			L.Thigh.Inferior			L.Patella			L.Shank.Superior			L.Shank.Lateral			L.Shank.Inferior			R.Shank.Superior			R.Shank.Lateral			R.Shank.Inferior			R.Heel			R.Midfoot.Superior			R.Midfoot.Lateral			R.Toe			L.Heel			L.Midfoot.Lateral			L.Midfoot.Superior			L.Toe			L.Elbow			L.Wrist			R.Elbow			R.Wrist			
		X1	Y1	Z1	X2	Y2	Z2	X3	Y3	Z3	X4	Y4	Z4	X5	Y5	Z5	X6	Y6	Z6	X7	Y7	Z7	X8	Y8	Z8	X9	Y9	Z9	X10	Y10	Z10	X11	Y11	Z11	X12	Y12	Z12	X13	Y13	Z13	X14	Y14	Z14	X15	Y15	Z15	X16	Y16	Z16	X17	Y17	Z17	X18	Y18	Z18	X19	Y19	Z19	X20	Y20	Z20	X21	Y21	Z21	X22	Y22	Z22	X23	Y23	Z23	X24	Y24	Z24	X25	Y25	Z25	X26	Y26	Z26	X27	Y27	Z27	X28	Y28	Z28	X29	Y29	Z29	X30	Y30	Z30	X31	Y31	Z31	X32	Y32	Z32	X33	Y33	Z33	

124	34.963571428571	740.798148519622	999.501998674824	449.589096066052	923.493816595487	1432.984541456623	288.851176591684	1016.726950479419	1358.411199001670	452.473899633279	922.766935927349	1424.134151539844	622.918677676104	894.239500006983	1487.734895661854	443.740724999402	961.558017023778	935.814328746077	578.167758969250	959.028934783987	952.738287810749	302.572123937520	1028.510878908682	755.021121767440	551.337923849316	972.452919815727	634.883940431241	616.595147933507	1060.066133489091	594.360535314837	538.085808181540	1084.910588652032	510.822616576388	549.232457986083	956.374136951846	720.698250198443	333.989271055575	841.483005620913	628.914077151973	270.966100207571	896.572759142228	535.149601110225	338.715751291644	878.894670155516	467.764927655871	349.626807560708	843.334080494459	402.137699748788	341.400232626488	737.911177141583	302.728475634703	290.043610296437	765.688890598221	186.716675258869	364.102838407296	1068.447672393457	421.682622275401	558.204858957892	1012.787102988805	308.541203836051	618.790259545599	1078.134763987194	222.262999178210	563.762051482515	978.230787982651	43.008792362682	532.439054815081	1143.537975721206	107.262545045850	571.596995309676	1061.414285661560	38.685861789035	607.144500984053	1266.217094365522	64.032115663613	598.856444036562	619.028908042562	40.804601981767	406.550885751018	691.987074211911	36.059463920767	325.662058974567	777.014098768581	95.661822434196	351.424417723604	903.983963845975	39.689333450568	320.193146331083	1003.512364340968	1107.633770327767	136.494448864708	1256.557942340649	1052.553163544691	132.426773968115	773.257660293269	1110.280919914014	714.656321996194	720.097680321306	855.370243501822	720.767751088387	
125	34.975714285714	741.526460777241	998.272308632035	451.812915426841	922.991275721535	1431.845243665977	291.012174697827	1016.598394294317	1357.735299073372	454.675947667249	922.419029388690	1423.134407684492	625.205865461065	893.793218786478	1486.747088094238	445.899193457525	962.554861720311	934.835284297123	580.448872147757	959.888376504766	951.766423131097	304.831371963769	1030.045183077925	753.810782905852	553.634033696582	971.618218647312	633.133708650057	616.694545922201	1060.479263023688	593.315196041667	539.314120616410	1083.637225667405	508.452017196476	549.338445797414	957.108539779375	719.600106349140	335.375897516211	841.566501676926	627.895442564064	272.838724785101	897.068915223175	533.752451528562	339.926781155518	879.324287940463	465.558140654735	350.627119912195	842.041452159814	400.468358397102	342.476348512830	734.593627479951	303.193262149543	290.863785745029	760.324836616233	186.386064909105	364.310301824958	1065.820255567445	418.754818272431	557.786100710957	1007.726509020852	306.380044651924	617.810285435204	1071.076698961459	219.024763366501	562.426965154826	967.152357979075	42.370360208311	531.079684431773	1133.677704140461	103.889178218872	570.164854712017	1050.078820462397	37.555522634645	606.136531287230	1255.662453104966	58.700207133965	597.796266061363	611.698657617999	41.969274290486	406.280583154602	684.740027587131	36.490322987291	325.561447454935	770.110800495131	95.748497859139	351.206006541379	896.725290963874	39.456303379721	320.096384376848	1001.107579729836	1105.028412183140	139.657657339808	1253.904455892366	1048.201467861466	135.757735965092	775.538722934609	1107.649528364259	716.863914615345	724.473378114329	852.283665231006	723.082870117875	
126	34.987857142857	742.200970598061	997.265027486047	454.129049409883	922.433286037258	1430.953209310628	293.279254484329	1016.501019476186	1357.256194231399	456.926897745055	922.199743740418	1422.283773915981	627.613687235521	893.413486117455	1486.004953094788	448.179960564002	963.648358460723	934.137585591537	582.708081783336	960.661919504837	951.034492848630	307.100998103394	1031.595353996263	752.765531209154	555.720514121937	971.233555300207	631.861564364179	617.015395974371	1060.851049432604	592.492592347093	540.327146371863	1082.472378029067	506.389468677230	549.445578668895	958.230572485081	718.759862519565	336.707293117658	842.157907114249	626.933658548835	274.791553190347	898.403205514503	532.463078112876	341.089277802711	880.734923062053	463.304556237307	351.446086781299	841.447949640944	398.831055863493	343.463249147357	731.770405697048	303.974820445537	291.696609255747	755.306620516530	186.290490781750	364.396542229714	1063.409952790707	416.263835612120	557.520526275174	1003.286017351140	304.666110767360	617.317779000951	1064.517413223143	216.273295870392	561.379842896205	956.763740755817	41.900133351296	530.300039796211	1124.349858540357	101.172368281451	568.976248809973	1039.579414125868	36.795100484813	605.546502011232	1245.811551229645	54.438848873970	596.838596787772	604.452563014574	43.761897376763	405.937342297424	677.537671937186	37.194315423286	325.419065887460	763.423029577608	95.909612567005	350.846515938163	889.471907266153	39.196685585135	319.991988165813	998.271578599489	1102.456834876068	143.058053655338	1250.615421814188	1042.801916105627	139.142518475396	778.576925691593	1104.778182599337	719.182295706388	730.351205673684	848.792023506420	725.453034345526	
127	35.000000000000	742.810243386474	996.534602611323	456.523276330060	921.822816589412	1430.374607689093	295.636890468461	1016.418255617358	1357.024984112231	459.211394508308	922.097215306192	1421.650800746683	630.114893064185	893.084321704910	1485.560956500140	450.564046771514	964.799471852964	933.763001232749	584.956833099176	961.332288274488	950.597147613463	309.383828582559	1033.045378456539	751.929892820560	557.573944400549	971.274314617294	631.098112901631	617.616258125502	1061.093652451624	591.897902599768	541.145365508010	1081.352146627753	504.693317603422	549.640818592224	959.724381749802	718.249781268651	338.031545878227	843.338118814708	626.061804861762	276.791749158033	900.667037996432	531.330326339018	342.180828210806	883.213907907543	461.064641604248	352.015163676155	841.647507388400	397.283547932839	344.299530707809	729.539342033975	305.157995610234	292.511662759202	750.735592962729	186.514391975994	364.325342026792	1061.183379416312	414.265679442732	557.466382739193	999.459756950205	303.420534979168	617.319809027838	1058.530502528269	214.081269097681	560.653462697926	947.282613421178	41.599531244749	529.991642335845	1115.722989719588	99.164123604029	568.085661689948	1030.088572366786	36.364263196446	605.306961503770	1236.818817806188	51.313952872386	596.071391749208	597.364030894528	46.357192991806	405.519568889097	670.417896401539	38.278244529074	325.231663938362	757.028167379982	96.177071580603	350.324514518641	882.224366701662	38.917335577074	319.890305679092	995.013657670188	1100.019166742899	146.698440856235	1246.634387743433	1036.394671995977	142.576847485924	782.359207343061	1101.785090764639	721.597274403575	737.708595999691	845.038715994189	727.840420871644	
